<svg width="21" height="19" viewBox="0 0 21 19" fill="none" xmlns="http://www.w3.org/2000/svg">
<path d="M15.0468 12.8333C13.9636 13.8958 12.586 15.1666 10.9108 16.6472C10.9105 16.6474 10.9102 16.6477 10.9098 16.648L10.1221 17.3408L9.3343 16.648C9.33399 16.6477 9.33368 16.6474 9.33336 16.6472C7.65815 15.1666 6.28058 13.8958 5.19734 12.8333C4.11875 11.7752 3.2801 10.844 2.66927 10.0374C2.05754 9.22965 1.66399 8.53055 1.45072 7.93668C1.23068 7.32396 1.12207 6.70251 1.12207 6.06758C1.12207 4.78589 1.54845 3.76402 2.39734 2.93133C3.24734 2.09754 4.29843 1.67249 5.62207 1.67249C6.34551 1.67249 7.0281 1.82154 7.6798 2.12078C8.33297 2.42068 8.89271 2.84073 9.36633 3.3873L10.1221 4.25945L10.8778 3.3873C11.3514 2.84073 11.9112 2.42068 12.5643 2.12078C13.216 1.82154 13.8986 1.67249 14.6221 1.67249C15.9457 1.67249 16.9968 2.09754 17.8468 2.93133C18.6957 3.76402 19.1221 4.78589 19.1221 6.06758C19.1221 6.70251 19.0135 7.32396 18.7934 7.93668C18.5802 8.53054 18.1866 9.22965 17.5749 10.0374C16.964 10.844 16.1254 11.7752 15.0468 12.8333Z" stroke="white" stroke-opacity="0.75" stroke-width="2"/>
</svg>
