<svg width="15.625122" height="15.625061" viewBox="0 0 15.6251 15.6251" fill="none" xmlns="http://www.w3.org/2000/svg" xmlns:xlink="http://www.w3.org/1999/xlink">
	<desc>
			Created with Pixso.
	</desc>
	<defs/>
	<path id="Vector" d="M15.57 14.5L10.5 9.42C11.29 8.41 11.71 7.16 11.71 5.85C11.71 4.29 11.1 2.82 10 1.71C8.89 0.6 7.42 0 5.85 0C4.29 0 2.82 0.61 1.71 1.71C0.6 2.82 0 4.29 0 5.85C0 7.42 0.61 8.89 1.71 10C2.82 11.1 4.29 11.71 5.85 11.71C7.16 11.71 8.41 11.29 9.42 10.5L14.5 15.57C14.51 15.59 14.53 15.6 14.55 15.61C14.57 15.62 14.59 15.62 14.61 15.62C14.63 15.62 14.65 15.62 14.67 15.61C14.69 15.6 14.71 15.59 14.72 15.57L15.57 14.72C15.59 14.71 15.6 14.69 15.61 14.67C15.62 14.65 15.62 14.63 15.62 14.61C15.62 14.59 15.62 14.57 15.61 14.55C15.6 14.53 15.59 14.51 15.57 14.5ZM8.95 8.95C8.12 9.77 7.02 10.23 5.85 10.23C4.69 10.23 3.59 9.77 2.76 8.95C1.93 8.12 1.48 7.02 1.48 5.85C1.48 4.69 1.93 3.59 2.76 2.76C3.59 1.93 4.69 1.48 5.85 1.48C7.02 1.48 8.12 1.93 8.95 2.76C9.77 3.59 10.23 4.69 10.23 5.85C10.23 7.02 9.77 8.12 8.95 8.95Z" fill="#C4C4C4" fill-opacity="1.000000" fill-rule="nonzero"/>
</svg>
