<svg width="64" height="72" viewBox="0 0 64 72" fill="none" xmlns="http://www.w3.org/2000/svg">
<path d="M35.709 22.808C35.709 25.569 33.4699 27.808 30.7095 27.808C27.948 27.808 25.709 25.569 25.709 22.808C25.709 20.0469 27.948 17.808 30.7095 17.808C33.471 17.808 35.709 20.0469 35.709 22.808Z" fill="white" fill-opacity="0.75"/>
<path d="M22 22.7818C22 17.9177 25.9566 14 30.8073 14C35.6571 14 39.6147 17.9177 39.6147 22.7818C39.6166 24.7886 38.9293 26.7339 37.6701 28.2855L41.7372 32.3963C41.9077 32.5748 42.0021 32.8138 42 33.0619C41.9978 33.31 41.8994 33.5474 41.7258 33.7228C41.5522 33.8983 41.3174 33.9978 41.0719 34C40.8264 34.0021 40.5899 33.9067 40.4133 33.7344L36.3378 29.6151C34.7664 30.8797 32.8161 31.5665 30.8073 31.5626C25.9575 31.5626 22 27.6458 22 22.7818ZM30.8073 15.8926C26.964 15.8926 23.8725 18.9908 23.8725 22.7818C23.8725 26.5727 26.964 29.67 30.8073 29.67C34.6507 29.67 37.7422 26.5727 37.7422 22.7808C37.7422 18.9908 34.6507 15.8926 30.8073 15.8926Z" fill="white" fill-opacity="0.75"/>
<path d="M19.4387 44.8189C19.4103 44.5324 19.2884 44.3099 19.073 44.1513C18.8575 43.9927 18.5652 43.9134 18.1958 43.9134C17.9449 43.9134 17.733 43.9489 17.5602 44.0199C17.3874 44.0885 17.2548 44.1844 17.1625 44.3075C17.0725 44.4306 17.0275 44.5703 17.0275 44.7266C17.0228 44.8568 17.05 44.9704 17.1092 45.0675C17.1708 45.1645 17.2548 45.2486 17.3613 45.3196C17.4679 45.3883 17.591 45.4486 17.7306 45.5007C17.8703 45.5504 18.0195 45.593 18.1781 45.6286L18.8315 45.7848C19.1487 45.8558 19.4399 45.9505 19.7051 46.0689C19.9702 46.1873 20.1999 46.3329 20.394 46.5057C20.5881 46.6785 20.7385 46.8821 20.845 47.1165C20.9539 47.3509 21.0095 47.6196 21.0119 47.9226C21.0095 48.3677 20.8959 48.7536 20.671 49.0803C20.4484 49.4046 20.1265 49.6567 19.7051 49.8366C19.286 50.0142 18.7806 50.103 18.1887 50.103C17.6016 50.103 17.0903 50.013 16.6547 49.8331C16.2214 49.6532 15.8829 49.3868 15.639 49.0341C15.3975 48.679 15.2709 48.2398 15.2591 47.7166H16.747C16.7636 47.9605 16.8334 48.1641 16.9565 48.3274C17.082 48.4884 17.2489 48.6103 17.4572 48.6932C17.6679 48.7737 17.9058 48.8139 18.171 48.8139C18.4314 48.8139 18.6575 48.776 18.8493 48.7003C19.0434 48.6245 19.1937 48.5192 19.3002 48.3842C19.4068 48.2493 19.46 48.0942 19.46 47.919C19.46 47.7557 19.4115 47.6184 19.3145 47.5071C19.2198 47.3958 19.0801 47.3011 18.8954 47.223C18.7131 47.1449 18.4894 47.0739 18.2243 47.0099L17.4324 46.8111C16.8192 46.6619 16.335 46.4287 15.9799 46.1115C15.6248 45.7943 15.4484 45.367 15.4508 44.8295C15.4484 44.3892 15.5656 44.0045 15.8024 43.6754C16.0415 43.3464 16.3694 43.0895 16.786 42.9048C17.2027 42.7202 17.6762 42.6278 18.2065 42.6278C18.7463 42.6278 19.2174 42.7202 19.6199 42.9048C20.0247 43.0895 20.3395 43.3464 20.5645 43.6754C20.7894 44.0045 20.9054 44.3857 20.9125 44.8189H19.4387ZM24.5036 50.1065C23.9425 50.1065 23.4595 49.9929 23.0547 49.7656C22.6522 49.536 22.3421 49.2116 22.1243 48.7926C21.9065 48.3712 21.7976 47.8729 21.7976 47.2976C21.7976 46.7365 21.9065 46.2441 22.1243 45.8203C22.3421 45.3965 22.6487 45.0663 23.044 44.8295C23.4418 44.5928 23.9081 44.4744 24.4432 44.4744C24.803 44.4744 25.138 44.5324 25.4482 44.6484C25.7607 44.7621 26.0329 44.9337 26.2649 45.1634C26.4993 45.393 26.6816 45.6818 26.8118 46.0298C26.942 46.3755 27.0071 46.7803 27.0071 47.2443V47.6598H22.4013V46.7223H25.5831C25.5831 46.5045 25.5357 46.3116 25.4411 46.1435C25.3464 45.9754 25.215 45.844 25.0469 45.7493C24.8812 45.6522 24.6882 45.6037 24.468 45.6037C24.2384 45.6037 24.0348 45.657 23.8572 45.7635C23.6821 45.8677 23.5447 46.0085 23.4453 46.1861C23.3459 46.3613 23.295 46.5566 23.2926 46.772V47.6634C23.2926 47.9332 23.3423 48.1664 23.4418 48.3629C23.5436 48.5594 23.6868 48.7109 23.8714 48.8175C24.0561 48.924 24.2751 48.9773 24.5284 48.9773C24.6965 48.9773 24.8504 48.9536 24.9901 48.9062C25.1297 48.8589 25.2493 48.7879 25.3487 48.6932C25.4482 48.5985 25.5239 48.4825 25.576 48.3452L26.9751 48.4375C26.9041 48.7737 26.7585 49.0672 26.5384 49.3182C26.3205 49.5668 26.0388 49.7609 25.6932 49.9006C25.3499 50.0379 24.9534 50.1065 24.5036 50.1065ZM29.5497 50.103C29.2017 50.103 28.8916 50.0426 28.6193 49.9219C28.3471 49.7988 28.1316 49.6177 27.973 49.3786C27.8168 49.1371 27.7386 48.8364 27.7386 48.4766C27.7386 48.1735 27.7943 47.919 27.9055 47.7131C28.0168 47.5071 28.1683 47.3414 28.3601 47.2159C28.5518 47.0904 28.7696 46.9957 29.0135 46.9318C29.2597 46.8679 29.5178 46.8229 29.7876 46.7969C30.1049 46.7637 30.3606 46.733 30.5547 46.7045C30.7488 46.6738 30.8897 46.6288 30.9773 46.5696C31.0649 46.5104 31.1087 46.4228 31.1087 46.3068V46.2855C31.1087 46.0606 31.0376 45.8866 30.8956 45.7635C30.7559 45.6404 30.5571 45.5788 30.299 45.5788C30.0268 45.5788 29.8101 45.6392 29.6491 45.7599C29.4882 45.8783 29.3816 46.0275 29.3295 46.2074L27.9304 46.0938C28.0014 45.7623 28.1411 45.4759 28.3494 45.2344C28.5578 44.9905 28.8265 44.8035 29.1555 44.6733C29.487 44.5407 29.8705 44.4744 30.3061 44.4744C30.6091 44.4744 30.8991 44.5099 31.1761 44.581C31.4555 44.652 31.7029 44.7621 31.9183 44.9112C32.1361 45.0604 32.3078 45.2521 32.4332 45.4865C32.5587 45.7185 32.6214 45.9967 32.6214 46.321V50H31.1868V49.2436H31.1442C31.0566 49.4141 30.9394 49.5644 30.7926 49.6946C30.6458 49.8224 30.4695 49.9231 30.2635 49.9964C30.0575 50.0675 29.8196 50.103 29.5497 50.103ZM29.983 49.0589C30.2055 49.0589 30.402 49.0152 30.5724 48.9276C30.7429 48.8376 30.8767 48.7169 30.9737 48.5653C31.0708 48.4138 31.1193 48.2422 31.1193 48.0504V47.4716C31.072 47.5024 31.0069 47.5308 30.924 47.5568C30.8435 47.5805 30.7524 47.603 30.6506 47.6243C30.5488 47.6432 30.447 47.661 30.3452 47.6776C30.2434 47.6918 30.151 47.7048 30.0682 47.7166C29.8906 47.7427 29.7356 47.7841 29.603 47.8409C29.4704 47.8977 29.3674 47.9747 29.294 48.0717C29.2206 48.1664 29.1839 48.2848 29.1839 48.4268C29.1839 48.6328 29.2585 48.7902 29.4077 48.8991C29.5592 49.0057 29.7509 49.0589 29.983 49.0589ZM33.7951 50V44.5455H35.2617V45.4972H35.3185C35.418 45.1586 35.5849 44.9029 35.8192 44.7301C36.0536 44.5549 36.3235 44.4673 36.6289 44.4673C36.7047 44.4673 36.7863 44.4721 36.8739 44.4815C36.9615 44.491 37.0385 44.504 37.1048 44.5206V45.8629C37.0337 45.8416 36.9355 45.8227 36.81 45.8061C36.6845 45.7895 36.5697 45.7812 36.4656 45.7812C36.243 45.7812 36.0442 45.8298 35.869 45.9268C35.6961 46.0215 35.5588 46.1541 35.457 46.3246C35.3576 46.495 35.3079 46.6915 35.3079 46.9141V50H33.7951ZM40.0975 50.1065C39.5388 50.1065 39.0582 49.9882 38.6557 49.7514C38.2556 49.5123 37.9479 49.1809 37.7324 48.7571C37.5194 48.3333 37.4128 47.8456 37.4128 47.294C37.4128 46.7353 37.5205 46.2453 37.736 45.8239C37.9538 45.4001 38.2627 45.0698 38.6628 44.8331C39.0629 44.594 39.5388 44.4744 40.0904 44.4744C40.5662 44.4744 40.9829 44.5608 41.3404 44.7337C41.6979 44.9065 41.9808 45.1491 42.1891 45.4616C42.3974 45.7741 42.5123 46.1411 42.5336 46.5625H41.106C41.0658 46.2902 40.9592 46.0713 40.7864 45.9055C40.6159 45.7375 40.3922 45.6534 40.1152 45.6534C39.8809 45.6534 39.6761 45.7173 39.5009 45.8452C39.3281 45.9706 39.1931 46.1541 39.0961 46.3956C38.999 46.6371 38.9505 46.9295 38.9505 47.2727C38.9505 47.6207 38.9978 47.9167 39.0925 48.1605C39.1896 48.4044 39.3257 48.5902 39.5009 48.718C39.6761 48.8459 39.8809 48.9098 40.1152 48.9098C40.2881 48.9098 40.4431 48.8743 40.5804 48.8033C40.7201 48.7322 40.8349 48.6293 40.9249 48.4943C41.0172 48.357 41.0776 48.1925 41.106 48.0007H42.5336C42.5099 48.4174 42.3962 48.7843 42.1926 49.1016C41.9914 49.4164 41.7132 49.6626 41.3581 49.8402C41.003 50.0178 40.5828 50.1065 40.0975 50.1065ZM45.0149 46.8466V50H43.5021V42.7273H44.9723V45.5078H45.0362C45.1593 45.1858 45.3582 44.9337 45.6328 44.7514C45.9074 44.5668 46.2519 44.4744 46.6662 44.4744C47.045 44.4744 47.3752 44.5573 47.657 44.723C47.9411 44.8864 48.1612 45.1219 48.3175 45.4297C48.4761 45.7351 48.5542 46.1009 48.5518 46.527V50H47.0391V46.7969C47.0414 46.4607 46.9562 46.1991 46.7834 46.0121C46.6129 45.825 46.3738 45.7315 46.0661 45.7315C45.8601 45.7315 45.6778 45.7753 45.5192 45.8629C45.3629 45.9505 45.2398 46.0784 45.1499 46.2464C45.0623 46.4122 45.0173 46.6122 45.0149 46.8466Z" fill="white" fill-opacity="0.75"/>
</svg>
